<mxfile host="app.diagrams.net" modified="2020-09-21T14:56:04.198Z" agent="5.0 (Windows NT 10.0; Win64; x64) AppleWebKit/537.36 (KHTML, like Gecko) Chrome/85.0.4183.102 Safari/537.36" etag="6HdKMB-nRaRT0nR126Bn" version="13.6.9" type="github">
  <diagram id="AAKAPAUA-LkE0o8C_zSf" name="Page-1">
    <mxGraphModel dx="1422" dy="745" grid="1" gridSize="10" guides="1" tooltips="1" connect="1" arrows="1" fold="1" page="1" pageScale="1" pageWidth="827" pageHeight="1169" math="0" shadow="0">
      <root>
        <mxCell id="0" />
        <mxCell id="1" parent="0" />
        <mxCell id="dv_IoOrrz4k9TK9aDi6h-3" value="" style="edgeStyle=orthogonalEdgeStyle;rounded=0;orthogonalLoop=1;jettySize=auto;html=1;" edge="1" parent="1" source="dv_IoOrrz4k9TK9aDi6h-1" target="dv_IoOrrz4k9TK9aDi6h-2">
          <mxGeometry relative="1" as="geometry" />
        </mxCell>
        <mxCell id="dv_IoOrrz4k9TK9aDi6h-1" value="&lt;font style=&quot;font-size: 15px&quot;&gt;删除文件&lt;/font&gt;" style="ellipse;whiteSpace=wrap;html=1;" vertex="1" parent="1">
          <mxGeometry x="220" y="50" width="120" height="80" as="geometry" />
        </mxCell>
        <mxCell id="dv_IoOrrz4k9TK9aDi6h-2" value="&lt;font style=&quot;font-size: 15px&quot;&gt;记录操作&lt;/font&gt;" style="ellipse;whiteSpace=wrap;html=1;" vertex="1" parent="1">
          <mxGeometry x="220" y="180" width="120" height="80" as="geometry" />
        </mxCell>
        <mxCell id="dv_IoOrrz4k9TK9aDi6h-4" value="" style="edgeStyle=orthogonalEdgeStyle;rounded=0;orthogonalLoop=1;jettySize=auto;html=1;" edge="1" parent="1" target="dv_IoOrrz4k9TK9aDi6h-5">
          <mxGeometry relative="1" as="geometry">
            <mxPoint x="280" y="260" as="sourcePoint" />
          </mxGeometry>
        </mxCell>
        <mxCell id="dv_IoOrrz4k9TK9aDi6h-5" value="&lt;font style=&quot;font-size: 15px&quot;&gt;文件重命名&lt;/font&gt;" style="ellipse;whiteSpace=wrap;html=1;" vertex="1" parent="1">
          <mxGeometry x="220" y="310" width="120" height="80" as="geometry" />
        </mxCell>
        <mxCell id="dv_IoOrrz4k9TK9aDi6h-6" value="&lt;font style=&quot;font-size: 15px&quot;&gt;1. 隐藏文件&lt;br&gt;2. 删除时间戳&lt;/font&gt;" style="text;html=1;align=left;verticalAlign=middle;resizable=0;points=[];autosize=1;" vertex="1" parent="1">
          <mxGeometry x="350" y="330" width="110" height="40" as="geometry" />
        </mxCell>
        <mxCell id="dv_IoOrrz4k9TK9aDi6h-7" value="" style="edgeStyle=orthogonalEdgeStyle;rounded=0;orthogonalLoop=1;jettySize=auto;html=1;" edge="1" parent="1" target="dv_IoOrrz4k9TK9aDi6h-8">
          <mxGeometry relative="1" as="geometry">
            <mxPoint x="280" y="390" as="sourcePoint" />
          </mxGeometry>
        </mxCell>
        <mxCell id="dv_IoOrrz4k9TK9aDi6h-8" value="&lt;span style=&quot;font-size: 15px&quot;&gt;定期扫描 namespace&lt;/span&gt;" style="ellipse;whiteSpace=wrap;html=1;" vertex="1" parent="1">
          <mxGeometry x="220" y="440" width="120" height="80" as="geometry" />
        </mxCell>
        <mxCell id="dv_IoOrrz4k9TK9aDi6h-9" value="&lt;font style=&quot;font-size: 15px&quot;&gt;时间超&lt;br&gt;过三天&lt;/font&gt;" style="rhombus;whiteSpace=wrap;html=1;" vertex="1" parent="1">
          <mxGeometry x="240" y="570" width="80" height="80" as="geometry" />
        </mxCell>
        <mxCell id="dv_IoOrrz4k9TK9aDi6h-11" value="" style="edgeStyle=orthogonalEdgeStyle;rounded=0;orthogonalLoop=1;jettySize=auto;html=1;" edge="1" parent="1">
          <mxGeometry relative="1" as="geometry">
            <mxPoint x="279.5" y="520" as="sourcePoint" />
            <mxPoint x="279.5" y="570" as="targetPoint" />
          </mxGeometry>
        </mxCell>
        <mxCell id="dv_IoOrrz4k9TK9aDi6h-12" value="" style="edgeStyle=orthogonalEdgeStyle;rounded=0;orthogonalLoop=1;jettySize=auto;html=1;" edge="1" parent="1">
          <mxGeometry relative="1" as="geometry">
            <mxPoint x="279.5" y="650" as="sourcePoint" />
            <mxPoint x="279.5" y="700" as="targetPoint" />
          </mxGeometry>
        </mxCell>
        <mxCell id="dv_IoOrrz4k9TK9aDi6h-13" value="&lt;font style=&quot;font-size: 15px&quot;&gt;是&lt;/font&gt;" style="text;html=1;align=center;verticalAlign=middle;resizable=0;points=[];autosize=1;" vertex="1" parent="1">
          <mxGeometry x="250" y="660" width="30" height="20" as="geometry" />
        </mxCell>
        <mxCell id="dv_IoOrrz4k9TK9aDi6h-14" value="&lt;span style=&quot;font-size: 15px&quot;&gt;删除隐藏文件&lt;br&gt;和 meta data&lt;/span&gt;" style="ellipse;whiteSpace=wrap;html=1;" vertex="1" parent="1">
          <mxGeometry x="220" y="700" width="120" height="80" as="geometry" />
        </mxCell>
      </root>
    </mxGraphModel>
  </diagram>
</mxfile>
